<svg id="Layer_1" data-name="Layer 1" xmlns="http://www.w3.org/2000/svg" viewBox="0 0 189.8 183.88"><defs><style>.cls-1{fill:#333;}.cls-2{fill:#4e4e4e;}</style></defs><title>clubs</title><path class="cls-1" d="M189.8,104.23c0,29.57-26.54,46.12-52.47,42.26-13.37-2-23.23-10.22-31.22-20.13-7.56-9.32-9.44-3.31-8.4,2.79,4.8,28.2,17.65,44.2,41.57,51.7,2.4.78,12.46,3,3.28,3H47.29c-9.18,0,.87-2.27,3.24-3,23.92-7.5,36.77-23.49,41.57-51.7,1-6.1-.81-12.11-8.37-2.79-8,9.9-17.84,18.11-31.25,20.13C26.58,150.31,0,133.8,0,104.23v0C0,83,17.14,59.39,39.46,61c1.53.13,12.1,2.4,15.39-.81,4.76-4.63-1.89-8.08-2.38-18.62v0C51.76,16.39,69,3,88.33.52v0A59.5,59.5,0,0,1,94.4,0a53.39,53.39,0,0,1,7.11.55v0c19.28,2.43,36.57,15.9,35.83,41v0c-.49,10.55-7.11,14-2.37,18.62,3.28,3.22,13.88.91,15.38.81,22.33-1.62,39.46,22,39.46,43.2Z"/><path class="cls-2" d="M94.7,0h-.3a59.5,59.5,0,0,0-6.07.55v0C69,3,51.76,16.39,52.47,41.53v0c.49,10.55,7.14,14,2.38,18.62-3.29,3.22-13.86.95-15.39.81C17.14,59.39,0,83,0,104.2v0c0,29.57,26.58,46.08,52.47,42.25,13.41-2,23.24-10.22,31.25-20.12,7.56-9.32,9.41-3.31,8.37,2.79-4.8,28.2-17.65,44.2-41.57,51.7-2.36.78-12.42,3-3.24,3H94.7Z"/></svg>