<svg id="Layer_1" data-name="Layer 1" xmlns="http://www.w3.org/2000/svg" viewBox="0 0 169.6 183.88"><defs><style>.cls-1{fill:#333;}.cls-2{fill:#4e4e4e;}</style></defs><title>spades</title><path class="cls-1" d="M122.12,31.48c-11-9-22.45-18.38-31.19-28.76A7.71,7.71,0,0,0,85,0h-.45a7.74,7.74,0,0,0-5.92,2.72C69.92,13.1,58.49,22.44,47.47,31.48,24.12,50.58,0,70.38,0,101c0,27.77,19.41,47.18,47.25,47.18,13.44,0,25.16-7.92,33.12-15.15-3.83,16.34-11,35.69-24.46,50.86h57.73C100.15,168.68,93,149.3,89.18,132.94c8,7.26,19.7,15.23,33.17,15.23,27.79,0,47.25-19.41,47.25-47.18C169.6,70.42,145.45,50.62,122.12,31.48Z"/><path class="cls-2" d="M84.6,183.88V0h0a7.74,7.74,0,0,0-5.92,2.72C69.92,13.1,58.49,22.44,47.47,31.48,24.12,50.58,0,70.38,0,101c0,27.77,19.41,47.18,47.25,47.18,13.44,0,25.16-7.92,33.12-15.15-3.83,16.34-11,35.69-24.46,50.86Z"/></svg>