<svg id="Layer_1" data-name="Layer 1" xmlns="http://www.w3.org/2000/svg" xmlns:xlink="http://www.w3.org/1999/xlink" viewBox="0 0 500 361"><defs><style>.cls-1{fill:none;}.cls-2{fill:#498f41;}.cls-3{fill:#6ca542;}.cls-4{fill:#73bf44;}.cls-5{clip-path:url(#clip-path);}.cls-6{fill:#8dc85b;}.cls-7{fill:#fff;}.cls-8{fill:#080405;}.cls-9{fill:#f5f5f5;}</style><clipPath id="clip-path"><path class="cls-1" d="M1,250S4.14,90.82,99.66,62.16s138-7.43,269.57,142.21c15.92,23.35,28.66,27.6-8.49,45.64S133.62,368.88,1,250Z"/></clipPath></defs><title>fish-green</title><path class="cls-2" d="M351.58,18.6c-17,50.13-61.62,45-107.53,41.73,12.21-13,12.87-34.59,13.52-55.36-4.86,16.54-37.93,29.18-52.52,34-21.4,5.84-62.25,26.26-65.17,50.58l2.06-.48a94.84,94.84,0,0,0-11.48,20.43L162,134.16c35.67,19.54,105,14.86,142.58,3.17C359.47,118.64,361.79,66.67,351.58,18.6Z"/><path class="cls-3" d="M244.06,70.46c45.55,3.26,89.86,8.3,107.11-40.6q-.93-5.65-2.12-11.26C333.18,65.48,293.09,64,250.42,61A37,37,0,0,1,244.06,70.46Z"/><path class="cls-3" d="M133.21,113.67A90.35,90.35,0,0,1,142,99.26l-2.06.48C142.8,75.41,183.66,55,205.05,49.15c12.68-4.23,39.3-14.33,49.25-27.76.39-5.42.56-11,.74-16.43-4.86,16.54-37.93,29.18-52.52,34-21.4,5.84-62.25,26.26-65.17,50.58l2.06-.48a94.84,94.84,0,0,0-11.48,20.43Z"/><path class="cls-2" d="M162.6,294.19c10.88,55.75,81.94,67.76,114.88,53.9-22.84-23.73-42.36-33.2-44.68-75"/><path class="cls-2" d="M259.2,281.71c6.32,32.39,47.61,39.37,66.74,31.32-13.27-13.79-24.61-19.29-26-43.58"/><path class="cls-2" d="M335.74,190.5c89.48-28.87,86.6,106.8,164.53,86.59-20.21,26-63.5,37.53-98.14,28.87-2.89,17.32,11.55,31.75,28.86,40.41-77.94,28.87-75-86.59-83.7-129.89"/><path class="cls-4" d="M1,250S4.14,90.82,99.66,62.16s138-7.43,269.57,142.21c15.92,23.35,28.66,27.6-8.49,45.64S133.62,368.88,1,250Z"/><g class="cls-5"><path class="cls-6" d="M65.31,46.75s263.21,78.54,76.42,290.8S-13.22,63.73,65.31,46.75Z"/><path class="cls-6" d="M286.07,46.75s-2.25.73-5.76,2.27C258.49,58.58,187.88,99.1,303,186.84,436.77,288.73,394.32,104.06,404.93,172"/><path class="cls-6" d="M260.6,320.57s-43-97.64,61.3-76.41S337,299.34,337,299.34l-85.18,29.72"/></g><circle class="cls-7" cx="92.49" cy="202.28" r="42.07"/><circle class="cls-8" cx="92.49" cy="202.28" r="23.59"/><circle class="cls-9" cx="90.51" cy="197.5" r="7.8"/><path class="cls-2" d="M1,250c4,1.67,8.06,3.33,12.14,4.86s8.15,3.06,12.26,4.5a258.56,258.56,0,0,0,25,7.47c4.21,1,8.46,1.87,12.74,2.47a74.06,74.06,0,0,0,12.88.81,32.61,32.61,0,0,0,12.48-2.59,17.18,17.18,0,0,0,8.89-8.94,17.21,17.21,0,0,1-8.45,9.81A32.06,32.06,0,0,1,76,271.68c-8.86.58-17.64-.91-26.17-2.89a197.85,197.85,0,0,1-25-8A224,224,0,0,1,1,250Z"/></svg>