<svg id="Layer_1" data-name="Layer 1" xmlns="http://www.w3.org/2000/svg" xmlns:xlink="http://www.w3.org/1999/xlink" viewBox="0 0 500 361"><defs><style>.cls-1{fill:none;}.cls-2{fill:#3d358f;}.cls-3{fill:#776db2;}.cls-4{fill:#665ea9;}.cls-5{fill:#fff;}.cls-6{fill:#080405;}.cls-7{fill:#f5f5f5;}.cls-8{clip-path:url(#clip-path);}.cls-9{fill:#9389c1;}.cls-10{opacity:0.2;}.cls-11{fill:#010101;}</style><clipPath id="clip-path"><path class="cls-1" d="M104.24,230.85C245.6,70.11,291.2,47.31,393.8,78.09c90.36,27.11,103.79,163,105.71,195-12.57,5.69-31.68,10.86-48.37.94,0,0,3.63,17.59,16.76,30-139.34,88.24-317.54-6.18-354.55-24.15C73.46,260.5,87.14,255.93,104.24,230.85Z"/></clipPath></defs><title>fish-purple-opp</title><path class="cls-2" d="M167.81,254.71C129.88,295.64-6.79,342.17.79,255c7.57-75.78,126.77-26.63,167-.31"/><path class="cls-2" d="M224.64,313.49c-29.64,11.4-93.48,38.77-73-22.8"/><path class="cls-2" d="M292.17,332.89c-29.64,11.4-93.48,38.76-73-22.8"/><path class="cls-2" d="M101.52,185.81c4.56-27.36,18.24-13.68,41-22.8-22.8-45.6-2.28-66.12,43.32-50.16-16-31.92-68.4-86.64-4.56-86.64,36.51,0,78.53,12.63,110.47,28.62.57-16,2.45-34.24,13.7-36.63,21.13-6.22,46,37.89,55.34,50.76l-53.55,4.49L131.16,247.38C122,236,99.24,201.77,101.52,185.81Z"/><path class="cls-3" d="M101.52,230.85C242.88,70.11,288.48,47.31,391.08,78.09c90.36,27.11,103.79,163,105.71,195-12.57,5.69-31.68,10.86-48.37.94,0,0,3.63,17.59,16.76,30-139.34,88.24-317.54-6.18-354.55-24.15C70.74,260.5,84.42,255.93,101.52,230.85Z"/><path class="cls-4" d="M142.56,171.18c-22,8.79-35.47-3.58-40.5,20a24.16,24.16,0,0,1-.54-8.08c4.27-25.62,16.54-15.25,36.81-21.33C139.53,164.78,140.92,167.91,142.56,171.18Z"/><path class="cls-4" d="M305.49,26.37C294.24,28.76,292.36,47,291.79,63c-31.94-16-74-28.62-110.47-28.62-19.09,0-27.78,4.9-30.16,12.61-3-13.71,3.15-23.5,30.16-23.5,36.51,0,78.53,12.63,110.47,28.62.57-16,2.45-34.24,13.7-36.63,21.13-6.22,46,37.89,55.34,50.76l-7,.58C342.09,49.16,322.56,21.35,305.49,26.37Z"/><path class="cls-4" d="M178.23,107.74c2.94,4.7,5.6,9.18,7.65,13.29-30.15-10.55-49.32-5.15-52.28,12.9C130.29,109.39,147.46,99.24,178.23,107.74Z"/><circle class="cls-5" cx="408.46" cy="224.93" r="48.33"/><circle class="cls-6" cx="408.45" cy="224.93" r="27.1"/><path class="cls-7" d="M404.94,219.49a9,9,0,1,0,9-9A9,9,0,0,0,404.94,219.49Z"/><circle class="cls-5" cx="408.46" cy="227.37" r="48.33"/><circle class="cls-6" cx="408.45" cy="227.37" r="27.1"/><path class="cls-7" d="M404.94,221.93a9,9,0,1,0,9-9A9,9,0,0,0,404.94,221.93Z"/><g class="cls-8"><path class="cls-9" d="M398.35,74.8c-42,25-46.37,72.07-55.56,115.31-34.23-38.34-5.63-119.83,28.29-146.52"/><path class="cls-9" d="M259,74.79c-9.42,30.39,9,55.05,23.44,80-33.27-3.61-55-55.46-50.23-83.16"/><path class="cls-9" d="M148.43,157.11c-12.33,39.78,11.8,72.06,30.68,104.67-43.54-4.72-72-72.6-65.74-108.85"/><path class="cls-9" d="M80.46,314.89c26.24-13.83,30.35-42.23,37.26-68.16,19.55,24.3-.32,72.8-21.71,87.93"/><path class="cls-9" d="M338.25,369.63c18.32-45.32-6.73-85.44-25.61-125.41,50.45,9.78,77,91.95,66.21,133.74"/><path class="cls-9" d="M229.64,351.3c25.71-63.61-9.45-119.9-35.94-176C264.5,189,301.81,304.34,286.61,363"/></g><path class="cls-2" d="M286.2,251.93c-22.82,24.63-105.06,52.63-100.5.19,4.56-45.6,76.29-16,100.5-.19"/><g class="cls-10"><path class="cls-11" d="M18.21,222.69C83.89,247,167.29,261.59,258.07,261.59c87.54,0,168.2-13.55,232.75-36.33a397.1,397.1,0,0,1,6,47.82c-12.57,5.69-31.68,10.86-48.37.94,0,0,3.63,17.59,16.76,30-59.2,37.49-125.41,42-184.83,33.42-29,11-70.83,24.21-64.43-14.48q-4.5-1.36-8.89-2.76c-29.73,10.82-68,20.39-57.54-21.94-10.88-4.79-20.14-9.22-27.42-12.77C68.21,310.83-4.81,319.36.79,255,2.36,239.31,8.73,229,18.21,222.69Z"/></g></svg>