<svg id="Layer_1" data-name="Layer 1" xmlns="http://www.w3.org/2000/svg" xmlns:xlink="http://www.w3.org/1999/xlink" viewBox="0 0 500 361"><defs><style>.cls-1{fill:none;}.cls-2{fill:#3d358f;}.cls-3{fill:#776db2;}.cls-4{fill:#665ea9;}.cls-5{fill:#fff;}.cls-6{fill:#080405;}.cls-7{fill:#f5f5f5;}.cls-8{clip-path:url(#clip-path);}.cls-9{fill:#9389c1;}.cls-10{opacity:0.2;}.cls-11{fill:#010101;}</style><clipPath id="clip-path"><path class="cls-1" d="M395.76,230.85C254.4,70.11,208.8,47.31,106.2,78.09,15.83,105.2,2.4,241,.48,273.08c12.57,5.69,31.68,10.86,48.37.94,0,0-3.63,17.59-16.76,30,139.34,88.24,317.54-6.18,354.55-24.15C426.54,260.5,412.86,255.93,395.76,230.85Z"/></clipPath></defs><title>fish-purple</title><path class="cls-2" d="M332.19,254.71c37.94,40.93,174.61,87.47,167,.31-7.57-75.78-126.77-26.63-167-.31"/><path class="cls-2" d="M275.36,313.49c29.64,11.4,93.48,38.77,73-22.8"/><path class="cls-2" d="M207.83,332.89c29.64,11.4,93.48,38.76,73-22.8"/><path class="cls-2" d="M398.48,185.81c-4.56-27.36-18.24-13.68-41-22.8,22.8-45.6,2.28-66.12-43.32-50.16,16-31.92,68.4-86.64,4.56-86.64-36.51,0-78.53,12.63-110.47,28.62-.57-16-2.45-34.24-13.7-36.63C173.38,12,148.48,56.09,139.17,69l53.55,4.49L368.84,247.38C378,236,400.76,201.77,398.48,185.81Z"/><path class="cls-3" d="M398.48,230.85C257.12,70.11,211.52,47.31,108.92,78.09,18.56,105.2,5.13,241,3.21,273.08c12.57,5.69,31.68,10.86,48.37.94,0,0-3.63,17.59-16.76,30,139.34,88.24,317.54-6.18,354.55-24.15C429.26,260.5,415.58,255.93,398.48,230.85Z"/><path class="cls-4" d="M357.44,171.18c22,8.79,35.47-3.58,40.5,20a24.16,24.16,0,0,0,.54-8.08c-4.27-25.62-16.54-15.25-36.81-21.33C360.47,164.78,359.08,167.91,357.44,171.18Z"/><path class="cls-4" d="M194.51,26.37C205.76,28.76,207.64,47,208.21,63c31.94-16,74-28.62,110.47-28.62,19.09,0,27.78,4.9,30.16,12.61,3-13.71-3.15-23.5-30.16-23.5-36.51,0-78.53,12.63-110.47,28.62-.57-16-2.45-34.24-13.7-36.63-21.13-6.22-46,37.89-55.34,50.76l7,.58C157.91,49.16,177.44,21.35,194.51,26.37Z"/><path class="cls-4" d="M321.77,107.74c-2.94,4.7-5.6,9.18-7.65,13.29,30.15-10.55,49.32-5.15,52.28,12.9C369.71,109.39,352.54,99.24,321.77,107.74Z"/><circle class="cls-5" cx="91.54" cy="224.93" r="48.33"/><circle class="cls-6" cx="91.55" cy="224.93" r="27.1"/><path class="cls-7" d="M95.06,219.49a9,9,0,1,1-9-9A9,9,0,0,1,95.06,219.49Z"/><circle class="cls-5" cx="91.54" cy="227.37" r="48.33"/><circle class="cls-6" cx="91.55" cy="227.37" r="27.1"/><path class="cls-7" d="M95.06,221.93a9,9,0,1,1-9-9A9,9,0,0,1,95.06,221.93Z"/><g class="cls-8"><path class="cls-9" d="M101.65,74.8c42,25,46.37,72.07,55.56,115.31,34.23-38.34,5.63-119.83-28.29-146.52"/><path class="cls-9" d="M241,74.79c9.42,30.39-9,55.05-23.44,80,33.27-3.61,55-55.46,50.23-83.16"/><path class="cls-9" d="M351.57,157.11c12.33,39.78-11.8,72.06-30.68,104.67,43.54-4.72,72-72.6,65.74-108.85"/><path class="cls-9" d="M419.54,314.89c-26.24-13.83-30.35-42.23-37.26-68.16-19.55,24.3.32,72.8,21.71,87.93"/><path class="cls-9" d="M161.75,369.63c-18.32-45.32,6.73-85.44,25.61-125.41-50.45,9.78-77,91.95-66.21,133.74"/><path class="cls-9" d="M270.36,351.3c-25.71-63.61,9.45-119.9,35.94-176C235.5,189,198.19,304.34,213.39,363"/></g><path class="cls-2" d="M213.8,251.93c22.82,24.63,105.06,52.63,100.5.19-4.56-45.6-76.29-16-100.5-.19"/><g class="cls-10"><path class="cls-11" d="M481.79,222.69C416.11,247,332.71,261.59,241.93,261.59c-87.54,0-168.2-13.55-232.75-36.33a397.1,397.1,0,0,0-6,47.82c12.57,5.69,31.68,10.86,48.37.94,0,0-3.63,17.59-16.76,30,59.2,37.49,125.41,42,184.83,33.42,29,11,70.83,24.21,64.43-14.48q4.5-1.36,8.89-2.76c29.73,10.82,68,20.39,57.54-21.94,10.88-4.79,20.14-9.22,27.42-12.77,53.87,25.33,126.89,33.86,121.3-30.48C497.64,239.31,491.27,229,481.79,222.69Z"/></g></svg>