<svg id="Layer_1" data-name="Layer 1" xmlns="http://www.w3.org/2000/svg" xmlns:xlink="http://www.w3.org/1999/xlink" viewBox="0 0 500 361"><defs><style>.cls-1{fill:none;}.cls-2{fill:#498f41;}.cls-3{fill:#6ca542;}.cls-4{fill:#73bf44;}.cls-5{clip-path:url(#clip-path);}.cls-6{fill:#8dc85b;}.cls-7{fill:#fff;}.cls-8{fill:#080405;}.cls-9{fill:#f5f5f5;}</style><clipPath id="clip-path"><path class="cls-1" d="M500.26,250s-3.18-159.2-98.7-187.85S263.59,54.74,132,204.38c-15.92,23.35-28.66,27.6,8.49,45.64S367.6,368.88,500.26,250Z"/></clipPath></defs><title>fish-green-opp</title><path class="cls-2" d="M149.63,18.6c17,50.13,61.62,45,107.53,41.73C245,47.36,244.29,25.74,243.64,5c4.86,16.54,37.93,29.18,52.52,34,21.4,5.84,62.25,26.26,65.17,50.58l-2.06-.48a94.84,94.84,0,0,1,11.48,20.43l-31.48,24.61c-35.67,19.54-105,14.86-142.58,3.17C141.74,118.64,139.43,66.67,149.63,18.6Z"/><path class="cls-3" d="M257.16,70.46c-45.55,3.26-89.86,8.3-107.11-40.6q.93-5.65,2.12-11.26C168,65.48,208.12,64,250.8,61A37,37,0,0,0,257.16,70.46Z"/><path class="cls-3" d="M368,113.67a90.35,90.35,0,0,0-8.74-14.41l2.06.48C358.41,75.41,317.56,55,296.16,49.15c-12.68-4.23-39.3-14.33-49.25-27.76-.39-5.42-.56-11-.74-16.43C251,21.5,284.11,34.15,298.7,39c21.4,5.84,62.25,26.26,65.17,50.58l-2.06-.48a94.84,94.84,0,0,1,11.48,20.43Z"/><path class="cls-2" d="M338.61,294.19c-10.88,55.75-81.94,67.76-114.88,53.9,22.84-23.73,42.36-33.2,44.68-75"/><path class="cls-2" d="M242,281.71c-6.32,32.39-47.61,39.37-66.74,31.32,13.27-13.79,24.61-19.29,26-43.58"/><path class="cls-2" d="M165.48,190.5C76,161.64,78.88,297.3,1,277.09c20.21,26,63.5,37.53,98.14,28.87,2.89,17.32-11.55,31.75-28.86,40.41,77.94,28.87,75-86.59,83.7-129.89"/><path class="cls-4" d="M500.26,250s-3.18-159.2-98.7-187.85S263.59,54.74,132,204.38c-15.92,23.35-28.66,27.6,8.49,45.64S367.6,368.88,500.26,250Z"/><g class="cls-5"><path class="cls-6" d="M435.9,46.75s-263.21,78.54-76.42,290.8S514.44,63.73,435.9,46.75Z"/><path class="cls-6" d="M215.15,46.75s2.25.73,5.76,2.27c21.81,9.55,92.43,50.07-22.74,137.82C64.44,288.73,106.89,104.06,96.28,172"/><path class="cls-6" d="M240.62,320.57s43-97.64-61.3-76.41-15.11,55.19-15.11,55.19l85.18,29.72"/></g><circle class="cls-7" cx="408.72" cy="202.28" r="42.07"/><circle class="cls-8" cx="408.72" cy="202.28" r="23.59"/><circle class="cls-9" cx="410.71" cy="197.5" r="7.8"/><path class="cls-2" d="M500.26,250a224,224,0,0,1-23.86,10.82,197.85,197.85,0,0,1-25,8c-8.53,2-17.31,3.47-26.17,2.89a32.06,32.06,0,0,1-12.83-3.27,17.21,17.21,0,0,1-8.45-9.81,17.18,17.18,0,0,0,8.89,8.94,32.61,32.61,0,0,0,12.48,2.59,74.06,74.06,0,0,0,12.88-.81c4.28-.6,8.53-1.44,12.74-2.47a258.56,258.56,0,0,0,25-7.47q6.16-2.16,12.26-4.5C492.2,253.35,496.23,251.69,500.26,250Z"/></svg>