<svg id="Layer_1" data-name="Layer 1" xmlns="http://www.w3.org/2000/svg" viewBox="0 0 500 361"><defs><style>.cls-1{fill:#b35626;}.cls-2{fill:#c27640;}.cls-3{fill:#f47c47;}.cls-4{fill:#974121;}.cls-5{fill:#fff;}.cls-6{fill:#080405;}.cls-7{fill:#f5f5f5;}.cls-8{fill:#f59638;}.cls-9{fill:#010101;opacity:0.2;}</style></defs><title>fish-orange</title><path class="cls-1" d="M117.49,96.91c29-25.11,83-54.07,121.66-63.73,34.76-7.73,71.45-11.59,106.21-13.51-22.71,17.38-67.59,63.72-81.1,85,17.16-4.83,36.69-7.72,56-5.8-17.38,13.52-36.69,69.52-29,81.11"/><path class="cls-2" d="M237.47,45.46c29.73-6.61,60.88-10.38,91-12.54,5.63-5.1,10.82-9.52,15.18-12.86C308.92,22,272.23,25.86,237.47,33.58c-38.62,9.66-92.69,38.62-121.66,63.73l9.22,4.41C155.25,78.59,202.64,54.17,237.47,45.46Z"/><path class="cls-2" d="M288.08,179.61l1.53.73a9.6,9.6,0,0,1-1.25-3.2C288.25,178,288.16,178.81,288.08,179.61Z"/><path class="cls-2" d="M273.39,102.37a161.44,161.44,0,0,0-10.81,14.55,160.77,160.77,0,0,1,46.32-6.33c3.17-4.87,6.46-8.85,9.68-11.35C303.21,97.7,287.73,99.25,273.39,102.37Z"/><path class="cls-1" d="M175.16,255s14.57,37.43,95.45,24.15c-13.28-4.83-51.91-31.39-38.63-41"/><path class="cls-1" d="M247.37,250.74C258.24,263.42,292.65,261.6,308,258c-12.68-10-20.83-10-20.83-29"/><path class="cls-1" d="M316.19,208.18c51.61,4.53,55.23,48.9,75.15,85.12,18.11,35.31,71.53,63.38,108.66,35.31-34.41-18.11-17.2-64.29-16.3-96,.91-42.55,7.24-96-38.94-115.9-47.08-19.92-98.7,20.83-113.18,64.29Z"/><path class="cls-3" d="M305.63,156C230.79,96.62,194,92,194,92,64.71,66.55,2.59,183.74,2.59,183.74s.06.14.16.49C6,188.37,23.1,209.81,30.59,208.7l1.93-1a3.09,3.09,0,0,1-1.93,1,193.28,193.28,0,0,1-23.34,10.2c.06.74.12,1.49.18,2.27,165.4,88.13,262,18.11,312.68,0S343.05,191,305.63,156Z"/><path class="cls-4" d="M114.82,108.65a89.65,89.65,0,0,1,16.88,13.22,104.43,104.43,0,0,1,13.85,16.74c8.05,12.14,13.68,26.65,14.2,42a68.76,68.76,0,0,1-3,22.55A74.1,74.1,0,0,1,147,223.27a93.87,93.87,0,0,1-32.15,28.6c9.27-10.78,17.9-21.64,23.94-33.52s9.34-24.55,8.84-37.36-4.38-25.56-10.32-37.63A195.2,195.2,0,0,0,114.82,108.65Z"/><circle class="cls-5" cx="79.68" cy="171.53" r="40.93"/><circle class="cls-6" cx="79.68" cy="171.53" r="22.95"/><circle class="cls-7" cx="77.75" cy="166.88" r="7.59"/><path class="cls-8" d="M170.92,118c12.46,0,12.46-19.31,0-19.31s-12.45,19.31,0,19.31Z"/><path class="cls-8" d="M213.4,141.22c12.45,0,12.45-19.31,0-19.31s-12.45,19.31,0,19.31Z"/><path class="cls-8" d="M180.57,162.46c12.45,0,12.45-19.31,0-19.31s-12.45,19.31,0,19.31Z"/><path class="cls-8" d="M178.64,208.73c12.45,0,12.45-19.31,0-19.31s-12.45,19.31,0,19.31Z"/><path class="cls-8" d="M218.88,186.32c12.45,0,12.45-19.31,0-19.31s-12.46,19.31,0,19.31Z"/><path class="cls-8" d="M213.4,230c12.45,0,12.45-19.31,0-19.31S201,230,213.4,230Z"/><path class="cls-8" d="M256.4,169.17c12.45,0,12.45-19.31,0-19.31s-12.45,19.31,0,19.31Z"/><path class="cls-8" d="M298.7,195c12.45,0,12.45-19.31,0-19.31S286.25,195,298.7,195Z"/><path class="cls-8" d="M256.71,212.82c12.45,0,12.45-19.31,0-19.31s-12.46,19.31,0,19.31Z"/><path class="cls-8" d="M170.92,251.21c12.46,0,12.46-19.31,0-19.31s-12.45,19.31,0,19.31Z"/><path class="cls-9" d="M483.32,232.42c.66-31,4.17-67.64-11.72-93-43.79,46-144.52,78.26-261.79,78.26-80.23,0-152.71-15.08-204.53-39.35-2,3.29-3.06,5.22-3.06,5.22S22.3,209.93,30.59,208.7l1.93-1a3.09,3.09,0,0,1-1.93,1A192.68,192.68,0,0,1,6.9,219c0,.64.1,1.27.15,1.93,69.81,37.2,127.35,46.22,174.37,42.87,10.22,10.12,34.62,24,88.82,15.08-8.18-3-25.95-14.18-35.31-24.61q6.22-1.77,12.11-3.72c10.91,12.63,45.26,10.82,60.63,7.2-11.17-8.77-18.82-9.82-20.48-23,12.48-5.5,23.29-10.54,32.55-13.86a105.79,105.79,0,0,0,17.69-7.81C369,226.71,374.28,262.75,391,293.08c18.11,35.31,71.53,63.38,108.66,35.31C465.21,310.29,482.42,264.11,483.32,232.42Z"/></svg>