<svg id="Layer_1" data-name="Layer 1" xmlns="http://www.w3.org/2000/svg" viewBox="0 0 500 361"><defs><style>.cls-1{fill:#b35626;}.cls-2{fill:#c27640;}.cls-3{fill:#f47c47;}.cls-4{fill:#974121;}.cls-5{fill:#fff;}.cls-6{fill:#080405;}.cls-7{fill:#f5f5f5;}.cls-8{fill:#f59638;}.cls-9{fill:#010101;opacity:0.2;}</style></defs><title>fish-orange-opp</title><path class="cls-1" d="M384.73,96.91c-29-25.11-83-54.07-121.66-63.73-34.76-7.73-71.45-11.59-106.21-13.51,22.71,17.38,67.59,63.72,81.1,85-17.16-4.83-36.69-7.72-56-5.8,17.38,13.52,36.69,69.52,29,81.11"/><path class="cls-2" d="M264.75,45.46c-29.73-6.61-60.88-10.38-91-12.54-5.63-5.1-10.82-9.52-15.18-12.86C193.3,22,230,25.86,264.75,33.58c38.62,9.66,92.69,38.62,121.66,63.73l-9.22,4.41C347,78.59,299.58,54.17,264.75,45.46Z"/><path class="cls-2" d="M214.14,179.61l-1.53.73a9.6,9.6,0,0,0,1.25-3.2C214,178,214.06,178.81,214.14,179.61Z"/><path class="cls-2" d="M228.83,102.37a161.44,161.44,0,0,1,10.81,14.55,160.77,160.77,0,0,0-46.32-6.33c-3.17-4.87-6.46-8.85-9.68-11.35C199,97.7,214.49,99.25,228.83,102.37Z"/><path class="cls-1" d="M327.06,255s-14.57,37.43-95.45,24.15c13.28-4.83,51.91-31.39,38.63-41"/><path class="cls-1" d="M254.85,250.74C244,263.42,209.57,261.6,194.18,258,206.86,248,215,248,215,229"/><path class="cls-1" d="M186,208.18c-51.61,4.53-55.23,48.9-75.15,85.12C92.76,328.61,39.34,356.68,2.22,328.61c34.41-18.11,17.2-64.29,16.3-96-.91-42.55-7.24-96,38.94-115.9,47.08-19.92,98.7,20.83,113.18,64.29Z"/><path class="cls-3" d="M196.59,156c74.84-59.34,111.68-64,111.68-64,129.24-25.43,191.36,91.76,191.36,91.76s-.06.14-.16.49c-3.23,4.14-20.35,25.59-27.83,24.47l-1.93-1a3.09,3.09,0,0,0,1.93,1A193.28,193.28,0,0,0,495,218.89c-.06.74-.12,1.49-.18,2.27-165.4,88.13-262,18.11-312.68,0S159.17,191,196.59,156Z"/><path class="cls-4" d="M387.4,108.65a89.65,89.65,0,0,0-16.88,13.22,104.43,104.43,0,0,0-13.85,16.74c-8.05,12.14-13.68,26.65-14.2,42a68.76,68.76,0,0,0,3,22.55,74.1,74.1,0,0,0,9.82,20.15,93.87,93.87,0,0,0,32.15,28.6c-9.27-10.78-17.9-21.64-23.94-33.52s-9.34-24.55-8.84-37.36,4.38-25.56,10.32-37.63A195.2,195.2,0,0,1,387.4,108.65Z"/><circle class="cls-5" cx="422.54" cy="171.53" r="40.93"/><circle class="cls-6" cx="422.54" cy="171.53" r="22.95"/><circle class="cls-7" cx="424.47" cy="166.88" r="7.59"/><path class="cls-8" d="M331.3,118c-12.46,0-12.46-19.31,0-19.31s12.45,19.31,0,19.31Z"/><path class="cls-8" d="M288.81,141.22c-12.45,0-12.45-19.31,0-19.31s12.45,19.31,0,19.31Z"/><path class="cls-8" d="M321.64,162.46c-12.45,0-12.45-19.31,0-19.31s12.45,19.31,0,19.31Z"/><path class="cls-8" d="M323.57,208.73c-12.45,0-12.45-19.31,0-19.31s12.45,19.31,0,19.31Z"/><path class="cls-8" d="M283.33,186.32c-12.45,0-12.45-19.31,0-19.31s12.46,19.31,0,19.31Z"/><path class="cls-8" d="M288.81,230c-12.45,0-12.45-19.31,0-19.31s12.45,19.31,0,19.31Z"/><path class="cls-8" d="M245.82,169.17c-12.45,0-12.45-19.31,0-19.31s12.45,19.31,0,19.31Z"/><path class="cls-8" d="M203.52,195c-12.45,0-12.45-19.31,0-19.31S216,195,203.52,195Z"/><path class="cls-8" d="M245.51,212.82c-12.45,0-12.45-19.31,0-19.31s12.46,19.31,0,19.31Z"/><path class="cls-8" d="M331.3,251.21c-12.46,0-12.46-19.31,0-19.31s12.45,19.31,0,19.31Z"/><path class="cls-9" d="M18.9,232.42c-.66-31-4.17-67.64,11.72-93,43.79,46,144.52,78.26,261.79,78.26,80.23,0,152.71-15.08,204.53-39.35,2,3.29,3.06,5.22,3.06,5.22s-20.08,26.41-28.37,25.17l-1.93-1a3.09,3.09,0,0,0,1.93,1A192.68,192.68,0,0,0,495.32,219c0,.64-.1,1.27-.15,1.93-69.81,37.2-127.35,46.22-174.37,42.87-10.22,10.12-34.62,24-88.82,15.08,8.18-3,25.95-14.18,35.31-24.61q-6.22-1.77-12.11-3.72c-10.91,12.63-45.26,10.82-60.63,7.2,11.17-8.77,18.82-9.82,20.48-23-12.48-5.5-23.29-10.54-32.55-13.86a105.79,105.79,0,0,1-17.69-7.81c-31.59,13.57-36.86,49.61-53.54,79.94C93.14,328.4,39.72,356.47,2.6,328.4,37,310.29,19.8,264.11,18.9,232.42Z"/></svg>